<svg xmlns="http://www.w3.org/2000/svg" width="250" height="478" viewBox="0 0 250 478">
  <g id="Component_1_1" data-name="Component 1 – 1" transform="translate(0)">
    <g id="Path_1" data-name="Path 1" fill="#cc7770">
      <path d="M 125.0001068115234 476.7557067871094 C 123.1659164428711 472.5697021484375 115.9554824829102 456.0563659667969 105.9292831420898 432.3569641113281 C 95.23816680908203 407.0855407714844 79.10581207275391 368.328857421875 62.96545791625977 327.2056274414062 C 44.82504653930664 280.9863891601562 30.37181282043457 241.259033203125 20.00716590881348 209.1271362304688 C 13.85510635375977 190.0549621582031 9.094459533691406 173.4835510253906 5.857459545135498 159.8730773925781 C 2.302518606185913 144.9250793457031 0.4999891519546509 133.1920776367188 0.4999891519546509 125.0001449584961 C 0.4999891519546509 116.5525588989258 1.35098922252655 108.1105575561523 3.029342174530029 99.90861511230469 C 4.664988994598389 91.91549682617188 7.105695247650146 84.05290985107422 10.28363609313965 76.53932189941406 C 13.4039888381958 69.16220092773438 17.26598930358887 62.04702758789062 21.76240158081055 55.39138031005859 C 26.21622467041016 48.79885101318359 31.33122444152832 42.59943771362305 36.96528244018555 36.9653205871582 C 42.59939956665039 31.33126068115234 48.79881286621094 26.21626091003418 55.39134216308594 21.76243782043457 C 62.04698944091797 17.26602554321289 69.16216278076172 13.40402603149414 76.53928375244141 10.28361415863037 C 84.05252075195312 7.105849742889404 91.91504669189453 4.665143966674805 99.90857696533203 3.02937912940979 C 108.1105194091797 1.351026058197021 116.5525207519531 0.5000261068344116 125.0001068115234 0.5000261068344116 C 133.4476928710938 0.5000261068344116 141.8896942138672 1.351026058197021 150.0916290283203 3.02937912940979 C 158.0851593017578 4.665143966674805 165.9476928710938 7.105849742889404 173.4609375 10.28367328643799 C 180.8380432128906 13.40402603149414 187.9532318115234 17.26602554321289 194.6088714599609 21.76243782043457 C 201.2014007568359 26.21626091003418 207.4008178710938 31.33126068115234 213.0349273681641 36.9653205871582 C 218.6689910888672 42.59943771362305 223.7839965820312 48.79885101318359 228.2378082275391 55.39138031005859 C 232.7342224121094 62.04702758789062 236.5962219238281 69.16220092773438 239.7166290283203 76.53932189941406 C 242.8945159912109 84.05290985107422 245.3352203369141 91.91549682617188 246.9708709716797 99.90861511230469 C 248.6492309570312 108.1105575561523 249.5002288818359 116.5525588989258 249.5002288818359 125.0001449584961 C 249.5002288818359 133.1920776367188 247.6976928710938 144.9250793457031 244.1427612304688 159.8730773925781 C 240.9057464599609 173.4835510253906 236.1451110839844 190.0549621582031 229.9930419921875 209.1271362304688 C 219.6284027099609 241.259033203125 205.1751708984375 280.9863891601562 187.0347595214844 327.2056274414062 C 170.8943939208984 368.328857421875 154.7620544433594 407.0855407714844 144.0709228515625 432.3569641113281 C 134.0447235107422 456.0563659667969 126.8342971801758 472.5697021484375 125.0001068115234 476.7557067871094 Z M 125.0001068115234 34.50014495849609 C 80.06087493896484 34.50014495849609 43.50010681152344 68.81767272949219 43.50010681152344 110.9996719360352 C 43.50010681152344 153.1822052001953 80.06087493896484 187.5001983642578 125.0001068115234 187.5001983642578 C 169.9393463134766 187.5001983642578 206.5001068115234 153.1822052001953 206.5001068115234 110.9996719360352 C 206.5001068115234 68.81767272949219 169.9393463134766 34.50014495849609 125.0001068115234 34.50014495849609 Z" stroke="none"/>
      <path d="M 125.0001068115234 475.5087585449219 C 127.3887481689453 470.046875 134.2800750732422 454.2168273925781 143.6103973388672 432.1621398925781 C 154.3003997802734 406.8934936523438 170.4309234619141 368.1411437988281 186.5692901611328 327.0229797363281 C 204.7059326171875 280.8132629394531 219.1557006835938 241.0957336425781 229.5172271728516 208.9736175537109 C 235.665283203125 189.9139099121094 240.4223480224609 173.3551483154297 243.6562805175781 159.7574310302734 C 247.2022857666016 144.8471984863281 249.0002288818359 133.1531982421875 249.0002288818359 125.0001449584961 C 249.0002288818359 116.5861434936523 248.1526336669922 108.177848815918 246.4809875488281 100.0088500976562 C 244.8519897460938 92.04808807373047 242.4211730957031 84.21732330322266 239.256103515625 76.73414611816406 C 236.1483459472656 69.38673400878906 232.3018188476562 62.30020141601562 227.8234558105469 55.67132186889648 C 223.3874664306641 49.10508346557617 218.2929229736328 42.93043899536133 212.6813354492188 37.31890869140625 C 207.0698089599609 31.70731925964355 200.8951721191406 26.61279106140137 194.3289337158203 22.17679023742676 C 187.7000427246094 17.69843864440918 180.613525390625 13.85190868377686 173.2661590576172 10.74414348602295 C 165.7833404541016 7.579202651977539 157.9525756835938 5.148378849029541 149.9913940429688 3.519261360168457 C 141.8224029541016 1.847614288330078 133.4141082763672 1.000026106834412 125.0001068115234 1.000026106834412 C 116.5861053466797 1.000026106834412 108.1778106689453 1.847614288330078 100.0088119506836 3.519261360168457 C 92.04763793945312 5.148378849029541 84.21687316894531 7.579202651977539 76.73410797119141 10.74414348602295 C 69.38669586181641 13.85190868377686 62.30016708374023 17.69843864440918 55.67128372192383 22.17679023742676 C 49.10504913330078 26.61279106140137 42.93040084838867 31.70731925964355 37.31887054443359 37.31890869140625 C 31.70728302001953 42.93043899536133 26.61275482177734 49.10508346557617 22.17675399780273 55.67132186889648 C 17.69840049743652 62.30020141601562 13.85187149047852 69.38673400878906 10.74410724639893 76.73408508300781 C 7.579048156738281 84.21732330322266 5.148224353790283 92.04808807373047 3.519224405288696 100.0088500976562 C 1.847577452659607 108.177848815918 0.9999891519546509 116.5861434936523 0.9999891519546509 125.0001449584961 C 0.9999891519546509 133.1531982421875 2.797930240631104 144.8471984863281 6.343930244445801 159.7574310302734 C 9.577871322631836 173.3551483154297 14.33493041992188 189.9139099121094 20.48298835754395 208.9736175537109 C 30.84451866149902 241.0957336425781 45.29428482055664 280.8132629394531 63.43093109130859 327.0229797363281 C 79.56928253173828 368.1411437988281 95.69981384277344 406.8934936523438 106.3898162841797 432.1621398925781 C 115.7201385498047 454.2168273925781 122.6114654541016 470.046875 125.0001068115234 475.5087585449219 M 125.0001068115234 34.00014495849609 C 170.2150421142578 34.00014495849609 207.0001068115234 68.54196929931641 207.0001068115234 110.9996719360352 C 207.0001068115234 153.4579010009766 170.2150421142578 188.0001983642578 125.0001068115234 188.0001983642578 C 79.78516387939453 188.0001983642578 43.00010681152344 153.4579010009766 43.00010681152344 110.9996719360352 C 43.00010681152344 68.54196929931641 79.78516387939453 34.00014495849609 125.0001068115234 34.00014495849609 M 125.0001068115234 477.9998474121094 L 124.9991683959961 477.997802734375 C 124.9213409423828 477.8210144042969 117.0823974609375 460.0034484863281 105.4688110351562 432.5517883300781 C 94.77645874023438 407.2775573730469 78.64234161376953 368.5165100097656 62.50004959106445 327.3883056640625 C 44.35610580444336 281.1600952148438 29.89928245544434 241.4229125976562 19.53128242492676 209.2806091308594 C 13.37522411346436 190.1960296630859 8.611047744750977 173.6119079589844 5.371047973632812 159.9887847900391 C 1.807106852531433 145.0030212402344 -1.083553524949821e-05 133.231201171875 -1.083553524949821e-05 125.0001449584961 C -1.083553524949821e-05 116.5190277099609 0.8544009327888489 108.0432586669922 2.539518594741821 99.80838012695312 C 4.181812763214111 91.78273010253906 6.632400989532471 83.88838195800781 9.82310676574707 76.34455871582031 C 12.95598888397217 68.93785095214844 16.83351898193359 61.79402542114258 21.34810638427734 55.11149597167969 C 25.81975364685059 48.4925537109375 30.95522499084473 42.2683219909668 36.61175537109375 36.61178970336914 C 42.26828384399414 30.95526123046875 48.49251937866211 25.81978988647461 55.1114616394043 21.34814453125 C 61.79398727416992 16.83355522155762 68.93781280517578 12.95602607727051 76.34452056884766 9.82314395904541 C 83.88822174072266 6.632437705993652 91.78257751464844 4.18190860748291 99.80834197998047 2.539555549621582 C 108.0432281494141 0.8544378876686096 116.5189895629883 2.609432522149291e-05 125.0001068115234 2.609432522149291e-05 C 133.4812316894531 2.609432522149291e-05 141.9569854736328 0.8544378876686096 150.1918640136719 2.539555549621582 C 158.2176361083984 4.18190860748291 166.1119842529297 6.632437705993652 173.6557006835938 9.82314395904541 C 181.0624084472656 12.95602607727051 188.2062225341797 16.83355522155762 194.8887481689453 21.34814453125 C 201.5076904296875 25.81978988647461 207.73193359375 30.95526123046875 213.3884582519531 36.61178970336914 C 219.0449829101562 42.2683219909668 224.1804656982422 48.4925537109375 228.652099609375 55.11149597167969 C 233.1667022705078 61.79402542114258 237.0442199707031 68.93785095214844 240.1771087646484 76.34455871582031 C 243.3678131103516 83.88838195800781 245.8184051513672 91.78273010253906 247.460693359375 99.80838012695312 C 249.1458129882812 108.0432586669922 250.0002288818359 116.5190277099609 250.0002288818359 125.0001449584961 C 250.0002288818359 133.231201171875 248.1930999755859 145.0030212402344 244.6291656494141 159.9887847900391 C 241.38916015625 173.6119079589844 236.6249847412109 190.1960296630859 230.4689331054688 209.2806091308594 C 220.1009368896484 241.4229125976562 205.6441040039062 281.1600952148438 187.5001678466797 327.3883056640625 C 171.3578643798828 368.5165100097656 155.2237548828125 407.2775573730469 144.5314025878906 432.5517883300781 C 132.9178161621094 460.0034484863281 125.0788726806641 477.8210144042969 125.0010452270508 477.997802734375 L 125.0001068115234 477.9998474121094 Z M 125.0001068115234 35.00014495849609 C 80.33657836914062 35.00014495849609 44.00010681152344 69.09343719482422 44.00010681152344 110.9996719360352 C 44.00010681152344 152.9065551757812 80.33657836914062 187.0001983642578 125.0001068115234 187.0001983642578 C 169.6636352539062 187.0001983642578 206.0001068115234 152.9065551757812 206.0001068115234 110.9996719360352 C 206.0001068115234 69.09343719482422 169.6636352539062 35.00014495849609 125.0001068115234 35.00014495849609 Z" stroke="none" fill="#707070"/>
    </g>
  </g>
</svg>
