<svg xmlns="http://www.w3.org/2000/svg" viewBox="0 0 277.05 184.15"><defs><style>.cls-1{font-size:72px;font-family:MonotypeCorsiva, Monotype Corsiva;}.cls-1,.cls-3{fill:#8c6239;}.cls-2{fill:#fff;}</style></defs><g id="Layer_2" data-name="Layer 2"><g id="Layer_1-2" data-name="Layer 1"><text class="cls-1" transform="translate(101.86 165.64) rotate(-33)">Decor</text><text class="cls-1" transform="translate(45.69 130.52) rotate(-30.13) scale(0.99 1)">Home</text><path class="cls-2" d="M36.21,127.33a1.5,1.5,0,0,0,0-3,1.5,1.5,0,0,0,0,3Z"/><path class="cls-3" d="M215.71,59.83c2-2.57,6.06-3.55,9.07-4.1a35,35,0,0,1,16.49,1c11,3.34,19.7,11.85,25.64,21.42a62.86,62.86,0,0,1,9.6,30.52V109q0,1.74,0-1.89l0,1c0,.72-.09,1.45-.15,2.16-.12,1.27-.3,2.54-.52,3.8a40.6,40.6,0,0,1-2,7.25,47.26,47.26,0,0,1-6.09,10.76c-10,13.79-25.24,22.87-41,28.78-20.26,7.62-42.14,10.6-63.68,11.27-26.81.83-53.7-2-80-7.14q-5.19-1-10.37-2.16c.31.07-.39,4.91,0,5,27.23,6,55.1,9.6,83,9.43,22.59-.13,45.58-2.63,67-10,16.38-5.6,32.44-14.35,43.36-28.1a54,54,0,0,0,6.58-10.31,41.13,41.13,0,0,0,3.72-14.58,68.66,68.66,0,0,0-5.23-33c-4.34-9.86-11.17-19-20.25-25a37,37,0,0,0-18.49-6.08A29,29,0,0,0,219,52.51a8.7,8.7,0,0,0-3.26,2.32c-.29.37,0,2,0,2.5s0,1.18,0,1.77c0,.13.09.64,0,.73Z"/><path class="cls-3" d="M205.71,21.83a6.22,6.22,0,0,0-2.1-3.36,25.53,25.53,0,0,0-5.2-3.66,87.83,87.83,0,0,0-18.3-7.27A180.25,180.25,0,0,0,153.6,2a209.07,209.07,0,0,0-32-1.93A187.38,187.38,0,0,0,87.11,3.71,151.51,151.51,0,0,0,52.9,14.93,126.55,126.55,0,0,0,21.76,35.65,122.44,122.44,0,0,0,8.22,50.18,34.61,34.61,0,0,0,.5,71a64.83,64.83,0,0,0,.55,12.22A51.13,51.13,0,0,0,4.34,94.46a79.1,79.1,0,0,0,13.32,21.06c5.12,6,11.22,10.7,19,12.62a32.17,32.17,0,0,0,15.48.06,12,12,0,0,0,3.61-1.37,9.44,9.44,0,0,0,0-2.5c0-.29-.24-2.36,0-2.5-2.86,1.86-7.08,2.19-10.36,2.26a32.76,32.76,0,0,1-18-4.87c-6.94-4.3-12.29-11.27-16.71-18A61.61,61.61,0,0,1,1.25,79.32a39.5,39.5,0,0,1-.7-5.73c-.1-2.09-.1,3,0,1.39,0-.56.07-1.13.12-1.7.09-1,.23-1.91.4-2.85A32.89,32.89,0,0,1,4.94,59.92a58.26,58.26,0,0,1,6.51-8.65c2.12-2.47,4.35-4.86,6.66-7.15a124.46,124.46,0,0,1,30-21.81A145.61,145.61,0,0,1,81.51,10a181.59,181.59,0,0,1,34.2-4.75,207.9,207.9,0,0,1,32.05,1,193.8,193.8,0,0,1,27.37,4.92,111,111,0,0,1,20,7c3.44,1.64,7.89,3.73,10,7.14a4.23,4.23,0,0,1,.6,1.57c-.24-1.63.24-3.36,0-5Z"/></g></g></svg>